<svg width="69" height="19" viewBox="0 0 69 19" fill="none" xmlns="http://www.w3.org/2000/svg">
<path d="M0.407818 3.39732C0.310793 2.99463 0.558582 2.58953 0.961272 2.49251L7.52348 0.911382C7.92617 0.814357 8.33127 1.06215 8.42829 1.46484C8.52532 1.86753 8.27753 2.27262 7.87484 2.36965L2.04177 3.7751L3.44721 9.60817C3.54424 10.0109 3.29645 10.416 2.89376 10.513C2.49107 10.61 2.08597 10.3622 1.98894 9.95953L0.407818 3.39732ZM50.3351 10.6986L49.7377 10.2451L49.7377 10.2451L50.3351 10.6986ZM67.9999 18C67.3913 18.4384 67.3914 18.4385 67.3914 18.4385C67.3914 18.4384 67.3914 18.4384 67.3913 18.4383C67.3911 18.438 67.3907 18.4375 67.3902 18.4368C67.3891 18.4353 67.3874 18.4329 67.3849 18.4296C67.3801 18.4229 67.3726 18.4126 67.3624 18.3988C67.3422 18.3711 67.3114 18.3294 67.2706 18.2748C67.1891 18.1657 67.0677 18.0053 66.9103 17.8033C66.5954 17.3992 66.1373 16.8293 65.5676 16.1708C64.4251 14.8501 62.848 13.1894 61.0882 11.7927C59.3135 10.3843 57.4297 9.30666 55.6699 9.04418C54.8036 8.91498 53.9788 8.98479 53.2042 9.29987C52.4297 9.61494 51.66 10.1937 50.9324 11.1521L49.7377 10.2451C50.6014 9.10741 51.5773 8.34232 52.639 7.91043C53.7007 7.47856 54.8029 7.39828 55.8911 7.56059C58.0402 7.88112 60.1747 9.15284 62.0206 10.6178C63.8814 12.0945 65.527 13.8311 66.7021 15.1895C67.2912 15.8705 67.7656 16.4605 68.0935 16.8814C68.2576 17.092 68.3851 17.2604 68.4722 17.377C68.5158 17.4352 68.5492 17.4806 68.5721 17.5118C68.5835 17.5274 68.5923 17.5394 68.5984 17.5478C68.6014 17.5519 68.6038 17.5552 68.6055 17.5575C68.6063 17.5587 68.607 17.5596 68.6075 17.5603C68.6077 17.5606 68.6079 17.561 68.6081 17.5611C68.6083 17.5614 68.6084 17.5616 67.9999 18ZM50.9324 11.1521C47.8075 15.2682 42.9965 16.7723 37.7046 16.7959C32.4187 16.8194 26.5421 15.3714 21.0908 13.4595C15.6301 11.5442 10.5461 9.14534 6.83134 7.22825C4.97272 6.26907 3.454 5.42901 2.39885 4.8281C1.87123 4.52761 1.45936 4.28683 1.1787 4.12074C1.03836 4.0377 0.930817 3.97332 0.857995 3.92948C0.821583 3.90756 0.79385 3.89077 0.775038 3.87936C0.765632 3.87365 0.758456 3.86928 0.75354 3.86629C0.751082 3.86479 0.749189 3.86363 0.747864 3.86282C0.747202 3.86242 0.746636 3.86208 0.746305 3.86187C0.745882 3.86161 0.745602 3.86144 1.13695 3.22164C1.5283 2.58184 1.52831 2.58184 1.52846 2.58194C1.5287 2.58208 1.52899 2.58226 1.52946 2.58255C1.53042 2.58313 1.53194 2.58406 1.53403 2.58533C1.5382 2.58788 1.54463 2.59179 1.55328 2.59704C1.57058 2.60754 1.59677 2.62339 1.63162 2.64437C1.70132 2.68633 1.80562 2.74877 1.94261 2.82984C2.21659 2.99197 2.62125 3.22855 3.14118 3.52465C4.18113 4.11692 5.68157 4.94692 7.51924 5.89529C11.197 7.79329 16.2141 10.1595 21.5873 12.044C26.9699 13.9318 32.66 15.3183 37.6979 15.2959C42.7299 15.2735 47 13.8511 49.7377 10.2451L50.9324 11.1521Z" fill="#1E1D29"/>
</svg>
